<svg width="73" height="105" viewBox="0 0 73 105" fill="none" xmlns="http://www.w3.org/2000/svg">
<rect x="2" y="16" width="69" height="69" rx="18" fill="#9EB68E" stroke="white" stroke-width="4"/>
<g filter="url(#filter0_d_27_26)">
<path d="M40.272 35.12C40.368 34.832 40.416 34.448 40.416 33.968C40.416 33.2 40.2 32.576 39.768 32.096C39.384 31.616 38.76 31.088 37.896 30.512C37.176 29.984 36.648 29.528 36.312 29.144C36.024 28.76 35.952 28.304 36.096 27.776C36.24 27.104 36.6 26.648 37.176 26.408C37.752 26.168 38.664 26.048 39.912 26.048H60.36C61.368 26.048 62.136 26.216 62.664 26.552C63.24 26.888 63.528 27.32 63.528 27.848C63.528 28.088 63.456 28.4 63.312 28.784C63.168 29.12 62.952 29.432 62.664 29.72C62.424 29.96 62.184 30.152 61.944 30.296C61.752 30.392 61.608 30.488 61.512 30.584C60.744 31.016 60.12 31.496 59.64 32.024C59.16 32.552 58.752 33.368 58.416 34.472L51.36 59.384C49.92 64.472 47.472 68.264 44.016 70.76C40.56 73.208 36.072 74.432 30.552 74.432C26.856 74.432 23.712 73.904 21.12 72.848C18.576 71.744 16.656 70.28 15.36 68.456C14.064 66.632 13.416 64.64 13.416 62.48C13.416 61.424 13.56 60.392 13.848 59.384C14.472 57.224 15.528 55.592 17.016 54.488C18.552 53.384 20.256 52.832 22.128 52.832C24.288 52.832 25.944 53.48 27.096 54.776C28.248 56.072 28.824 57.728 28.824 59.744C28.824 60.752 28.68 61.76 28.392 62.768C27.816 64.784 26.736 66.272 25.152 67.232C25.92 67.712 26.808 67.952 27.816 67.952C28.824 67.952 29.712 67.448 30.48 66.44C31.248 65.432 31.896 64.016 32.424 62.192L40.272 35.12Z" fill="#FEFFFB"/>
</g>
<defs>
<filter id="filter0_d_27_26" x="9.416" y="26.048" width="58.112" height="56.384" filterUnits="userSpaceOnUse" color-interpolation-filters="sRGB">
<feFlood flood-opacity="0" result="BackgroundImageFix"/>
<feColorMatrix in="SourceAlpha" type="matrix" values="0 0 0 0 0 0 0 0 0 0 0 0 0 0 0 0 0 0 127 0" result="hardAlpha"/>
<feOffset dy="4"/>
<feGaussianBlur stdDeviation="2"/>
<feComposite in2="hardAlpha" operator="out"/>
<feColorMatrix type="matrix" values="0 0 0 0 0.538573 0 0 0 0 0.620833 0 0 0 0 0.483733 0 0 0 1 0"/>
<feBlend mode="normal" in2="BackgroundImageFix" result="effect1_dropShadow_27_26"/>
<feBlend mode="normal" in="SourceGraphic" in2="effect1_dropShadow_27_26" result="shape"/>
</filter>
</defs>
</svg>
