<svg width="64" height="29" viewBox="0 0 64 29" fill="none" xmlns="http://www.w3.org/2000/svg">
<rect x="0.5" y="0.5" width="63" height="16" stroke="#A2B592"/>
<path d="M12.2487 6.15464V4.93402H16.1745V10.2454C16.1745 11.1581 15.9435 11.8564 15.4817 12.3402C15.0198 12.8241 14.3985 13.066 13.6178 13.066C12.6831 13.066 11.8858 12.7361 11.226 12.0763L12.0013 11.0041C12.5181 11.499 13.0294 11.7464 13.5353 11.7464C13.8982 11.7464 14.2006 11.6254 14.4425 11.3835C14.6844 11.1416 14.8054 10.7897 14.8054 10.3278V6.15464H12.2487ZM24.2196 11.7959C24.8464 11.7959 25.3413 11.5814 25.7041 11.1526C26.078 10.7237 26.265 10.1409 26.265 9.40412V4.93402H27.634V9.45361C27.634 10.5973 27.3206 11.488 26.6938 12.1258C26.067 12.7636 25.2423 13.0825 24.2196 13.0825C23.1969 13.0825 22.3722 12.7636 21.7454 12.1258C21.1186 11.488 20.8052 10.5973 20.8052 9.45361V4.93402H22.1578V9.40412C22.1578 10.1519 22.3447 10.7347 22.7186 11.1526C23.0815 11.5814 23.5818 11.7959 24.2196 11.7959ZM38.3928 4.93402H39.7453V13H38.2773L33.7082 7.11134V13H32.3391V4.93402H33.7082L38.3928 10.9546V4.93402ZM48.2832 5.9732C47.4805 5.9732 46.8042 6.25911 46.2544 6.83093C45.7045 7.40275 45.4296 8.09553 45.4296 8.90928C45.4296 9.72302 45.7045 10.4158 46.2544 10.9876C46.8042 11.5485 47.4805 11.8289 48.2832 11.8289C49.086 11.8289 49.7623 11.5485 50.3121 10.9876C50.8619 10.4158 51.1368 9.72302 51.1368 8.90928C51.1368 8.09553 50.8619 7.40275 50.3121 6.83093C49.7623 6.25911 49.086 5.9732 48.2832 5.9732ZM48.2832 13.0825C47.0736 13.0825 46.0619 12.6866 45.2482 11.8948C44.4344 11.0921 44.0276 10.0969 44.0276 8.90928C44.0276 7.72165 44.4344 6.73196 45.2482 5.94021C46.0619 5.13746 47.0736 4.73608 48.2832 4.73608C49.4929 4.73608 50.5045 5.13746 51.3183 5.94021C52.132 6.73196 52.5389 7.72165 52.5389 8.90928C52.5389 10.0969 52.1265 11.0866 51.3018 11.8784C50.477 12.6811 49.4709 13.0825 48.2832 13.0825Z" fill="#A2B592"/>
<rect y="18" width="64" height="11" fill="#A2B592"/>
<path d="M7.15166 24.0113L7.93826 21.4711H8.47228L9.25888 24.0113L10.1465 21.4711H10.7888L9.55475 25H8.963L8.22692 22.5825H8.18362L7.44032 25H6.84857L5.61455 21.4711H6.25682L7.15166 24.0113ZM15.0879 21.4711V22.0268H13.2044V22.9649H14.893V23.4918H13.2044V24.4371H15.1456V25H12.6054V21.4711H15.0879ZM17.1671 25V21.4711H18.5383C19.0338 21.4711 19.3706 21.577 19.5486 21.7887C19.7074 21.9667 19.7867 22.1711 19.7867 22.4021C19.7867 22.6811 19.7001 22.888 19.5269 23.0227C19.4692 23.066 19.3826 23.1141 19.2671 23.167C19.4885 23.2151 19.6616 23.3137 19.7867 23.4629C19.9166 23.612 19.9816 23.7973 19.9816 24.0186C19.9816 24.2976 19.8805 24.5309 19.6785 24.7186C19.4812 24.9062 19.1589 25 18.7115 25H17.1671ZM17.7661 22.9361H18.5166C18.9496 22.9361 19.1661 22.7893 19.1661 22.4959C19.1661 22.3275 19.1132 22.2072 19.0074 22.1351C18.9063 22.0581 18.7452 22.0196 18.5238 22.0196H17.7661V22.9361ZM17.7661 24.4515H18.697C18.928 24.4515 19.0988 24.4155 19.2094 24.3433C19.3201 24.2663 19.3754 24.1364 19.3754 23.9536C19.3754 23.6409 19.1252 23.4845 18.6249 23.4845H17.7661V24.4515ZM25.1127 22.3588C25.1127 22.5079 25.168 22.6162 25.2786 22.6835C25.3893 22.7653 25.625 22.8495 25.9859 22.9361C26.3659 23.0275 26.6426 23.1526 26.8157 23.3113C26.9938 23.4701 27.0828 23.6986 27.0828 23.9969C27.0828 24.3096 26.9649 24.5622 26.7292 24.7546C26.4982 24.9471 26.1951 25.0433 25.8199 25.0433C25.2762 25.0433 24.7855 24.8509 24.3477 24.466L24.723 24.0186C25.0886 24.3313 25.459 24.4876 25.8343 24.4876C26.0219 24.4876 26.1735 24.4467 26.2889 24.3649C26.4044 24.2784 26.4621 24.1677 26.4621 24.033C26.4621 23.8983 26.4092 23.7924 26.3034 23.7155C26.2023 23.6385 26.0195 23.5687 25.7549 23.5062C25.2979 23.4003 24.9804 23.2753 24.8023 23.1309C24.5955 22.9722 24.492 22.7292 24.492 22.4021C24.492 22.0845 24.6075 21.8368 24.8384 21.6588C25.0694 21.4759 25.3652 21.3845 25.7261 21.3845C26.212 21.3845 26.6281 21.5265 26.9745 21.8103L26.657 22.2577C26.5511 22.1615 26.4092 22.0845 26.2312 22.0268C26.0532 21.9643 25.8776 21.933 25.7044 21.933C25.5264 21.933 25.3821 21.9715 25.2714 22.0485C25.1656 22.1206 25.1127 22.2241 25.1127 22.3588ZM31.5644 21.4711V22.0268H29.6809V22.9649H31.3695V23.4918H29.6809V24.4371H31.6221V25H29.0819V21.4711H31.5644ZM35.7004 23.7155L36.6241 25H35.8664L35.022 23.8093H34.2426V25H33.6437V21.4711H34.9571C35.4911 21.4711 35.8736 21.5625 36.1045 21.7454C36.3402 21.9234 36.4581 22.2144 36.4581 22.6186C36.4581 23.2007 36.2055 23.5663 35.7004 23.7155ZM34.9787 23.2753C35.3107 23.2753 35.5392 23.2247 35.6643 23.1237C35.7894 23.0227 35.8519 22.8519 35.8519 22.6113C35.8519 22.3804 35.7894 22.2241 35.6643 22.1423C35.5392 22.0557 35.3155 22.0124 34.9932 22.0124H34.2426V23.2753H34.9787ZM40.1907 25H39.5268L38.1051 21.4711H38.7763L39.8587 24.1052L40.9484 21.4711H41.6123L40.1907 25ZM43.3756 21.4711H43.9746V25H43.3756V21.4711ZM48.813 24.0258L49.1955 24.4155C48.8298 24.834 48.3776 25.0433 47.8388 25.0433C47.3048 25.0433 46.8597 24.8725 46.5037 24.5309C46.1525 24.1845 45.9769 23.7491 45.9769 23.2247C45.9769 22.6955 46.1573 22.2577 46.5182 21.9113C46.879 21.5601 47.3336 21.3845 47.8821 21.3845C48.4209 21.3845 48.8755 21.5866 49.246 21.9907L48.8707 22.4021C48.7024 22.2385 48.5436 22.1254 48.3944 22.0629C48.2453 22.0003 48.0697 21.9691 47.8676 21.9691C47.5068 21.9691 47.2037 22.0845 46.9584 22.3155C46.7178 22.5464 46.5975 22.8399 46.5975 23.1959C46.5975 23.5471 46.7178 23.8454 46.9584 24.0907C47.1989 24.3361 47.4852 24.4588 47.8171 24.4588C48.0192 24.4588 48.1924 24.4251 48.3367 24.3577C48.4859 24.2904 48.6446 24.1797 48.813 24.0258ZM53.6691 21.4711V22.0268H51.7856V22.9649H53.4742V23.4918H51.7856V24.4371H53.7268V25H51.1866V21.4711H53.6691ZM56.2246 22.3588C56.2246 22.5079 56.28 22.6162 56.3906 22.6835C56.5013 22.7653 56.737 22.8495 57.0978 22.9361C57.4779 23.0275 57.7545 23.1526 57.9277 23.3113C58.1057 23.4701 58.1948 23.6986 58.1948 23.9969C58.1948 24.3096 58.0769 24.5622 57.8411 24.7546C57.6102 24.9471 57.3071 25.0433 56.9319 25.0433C56.3882 25.0433 55.8975 24.8509 55.4597 24.466L55.835 24.0186C56.2006 24.3313 56.571 24.4876 56.9463 24.4876C57.1339 24.4876 57.2855 24.4467 57.4009 24.3649C57.5164 24.2784 57.5741 24.1677 57.5741 24.033C57.5741 23.8983 57.5212 23.7924 57.4154 23.7155C57.3143 23.6385 57.1315 23.5687 56.8669 23.5062C56.4099 23.4003 56.0923 23.2753 55.9143 23.1309C55.7075 22.9722 55.604 22.7292 55.604 22.4021C55.604 22.0845 55.7195 21.8368 55.9504 21.6588C56.1813 21.4759 56.4772 21.3845 56.838 21.3845C57.324 21.3845 57.7401 21.5265 58.0865 21.8103L57.769 22.2577C57.6631 22.1615 57.5212 22.0845 57.3432 22.0268C57.1652 21.9643 56.9896 21.933 56.8164 21.933C56.6384 21.933 56.4941 21.9715 56.3834 22.0485C56.2776 22.1206 56.2246 22.2241 56.2246 22.3588Z" fill="white"/>
</svg>
