<svg width="193" height="49" viewBox="0 0 193 49" fill="none" xmlns="http://www.w3.org/2000/svg">
<path d="M27.272 9.12C27.368 8.832 27.416 8.448 27.416 7.968C27.416 7.2 27.2 6.576 26.768 6.096C26.384 5.616 25.76 5.088 24.896 4.512C24.176 3.984 23.648 3.528 23.312 3.144C23.024 2.76 22.952 2.304 23.096 1.776C23.24 1.104 23.6 0.647999 24.176 0.407999C24.752 0.167999 25.664 0.0479994 26.912 0.0479994H47.36C48.368 0.0479994 49.136 0.215999 49.664 0.551997C50.24 0.887999 50.528 1.32 50.528 1.848C50.528 2.088 50.456 2.4 50.312 2.784C50.168 3.12 49.952 3.432 49.664 3.72C49.424 3.96 49.184 4.152 48.944 4.296C48.752 4.392 48.608 4.488 48.512 4.584C47.744 5.016 47.12 5.496 46.64 6.024C46.16 6.552 45.752 7.368 45.416 8.472L38.36 33.384C36.92 38.472 34.472 42.264 31.016 44.76C27.56 47.208 23.072 48.432 17.552 48.432C13.856 48.432 10.712 47.904 8.12 46.848C5.576 45.744 3.656 44.28 2.36 42.456C1.064 40.632 0.416 38.64 0.416 36.48C0.416 35.424 0.56 34.392 0.848 33.384C1.472 31.224 2.528 29.592 4.016 28.488C5.552 27.384 7.256 26.832 9.128 26.832C11.288 26.832 12.944 27.48 14.096 28.776C15.248 30.072 15.824 31.728 15.824 33.744C15.824 34.752 15.68 35.76 15.392 36.768C14.816 38.784 13.736 40.272 12.152 41.232C12.92 41.712 13.808 41.952 14.816 41.952C15.824 41.952 16.712 41.448 17.48 40.44C18.248 39.432 18.896 38.016 19.424 36.192L27.272 9.12ZM87.2368 38.064C87.1408 38.448 87.0928 38.736 87.0928 38.928C87.0928 39.264 87.1648 39.528 87.3088 39.72C87.5008 39.912 87.7408 40.008 88.0288 40.008C88.6048 40.008 89.0848 39.768 89.4688 39.288C89.9008 38.76 90.1888 38.496 90.3328 38.496C90.5728 38.496 90.7648 38.664 90.9088 39C91.1008 39.288 91.1968 39.648 91.1968 40.08C91.2448 41.424 90.7648 42.768 89.7568 44.112C88.7488 45.408 87.3328 46.488 85.5088 47.352C83.6848 48.216 81.6448 48.648 79.3888 48.648C76.5568 48.648 74.3008 48.072 72.6208 46.92C70.9408 45.768 69.8608 44.256 69.3808 42.384C67.6528 44.304 65.7328 45.768 63.6208 46.776C61.5568 47.736 59.4448 48.216 57.2848 48.216C53.9248 48.216 51.0928 47.4 48.7888 45.768C46.5328 44.088 45.4048 41.76 45.4048 38.784C45.4048 37.44 45.6448 36.048 46.1248 34.608L50.7328 19.56C50.8768 19.128 50.9488 18.768 50.9488 18.48C50.9488 17.952 50.8288 17.544 50.5888 17.256C50.3488 16.92 49.9888 16.584 49.5088 16.248C49.0288 15.864 48.6928 15.528 48.5008 15.24C48.3088 14.952 48.2848 14.568 48.4288 14.088C48.7168 12.984 50.2288 12.024 52.9648 11.208C55.7008 10.344 58.5568 9.912 61.5328 9.912C64.3168 9.912 66.3568 10.44 67.6528 11.496C68.9488 12.552 69.5968 13.992 69.5968 15.816C69.5968 16.92 69.4288 17.976 69.0928 18.984L64.5568 33.96C64.3648 34.488 64.2688 34.992 64.2688 35.472C64.2688 36.144 64.4608 36.648 64.8448 36.984C65.2288 37.32 65.7328 37.488 66.3568 37.488C67.2688 37.488 68.0128 37.224 68.5888 36.696C69.1648 36.168 69.7408 35.28 70.3168 34.032L74.7088 19.56C74.8528 19.128 74.9248 18.768 74.9248 18.48C74.9248 17.952 74.8048 17.544 74.5648 17.256C74.3248 16.92 73.9888 16.584 73.5568 16.248C73.0768 15.864 72.7408 15.528 72.5488 15.24C72.3568 14.952 72.3328 14.568 72.4768 14.088C72.7168 12.984 74.2048 12.024 76.9408 11.208C79.6768 10.344 82.5328 9.912 85.5088 9.912C88.2928 9.912 90.3328 10.44 91.6288 11.496C92.9728 12.552 93.6448 13.968 93.6448 15.744C93.6448 16.656 93.4528 17.736 93.0688 18.984L87.2368 38.064ZM138.396 38.064C138.3 38.256 138.252 38.544 138.252 38.928C138.252 39.264 138.324 39.528 138.468 39.72C138.66 39.912 138.9 40.008 139.188 40.008C139.764 40.008 140.244 39.768 140.628 39.288C141.06 38.76 141.348 38.496 141.492 38.496C141.732 38.496 141.924 38.664 142.068 39C142.212 39.288 142.284 39.648 142.284 40.08C142.332 41.472 141.876 42.84 140.916 44.184C139.956 45.48 138.54 46.56 136.668 47.424C134.844 48.24 132.636 48.648 130.044 48.648C126.876 48.648 124.356 47.928 122.484 46.488C120.612 45 119.652 43.032 119.604 40.584C119.604 38.808 120.036 36.816 120.9 34.608L124.86 24.24C125.1 23.616 125.22 23.112 125.22 22.728C125.22 22.104 125.004 21.624 124.572 21.288C124.188 20.904 123.708 20.712 123.132 20.712C122.076 20.712 121.068 21.216 120.108 22.224C119.148 23.184 118.452 24.384 118.02 25.824L113.556 40.512C113.364 41.04 113.268 41.544 113.268 42.024C113.268 42.6 113.388 43.08 113.628 43.464C113.868 43.8 114.204 44.16 114.636 44.544C114.972 44.832 115.212 45.096 115.356 45.336C115.5 45.576 115.524 45.864 115.428 46.2C115.236 46.824 114.78 47.28 114.06 47.568C113.34 47.856 112.212 48 110.676 48H94.2601C93.0121 48 92.1241 47.808 91.5961 47.424C91.0201 46.992 90.8041 46.44 90.9481 45.768C91.1401 45.192 91.6441 44.688 92.4601 44.256C93.1801 43.872 93.7801 43.416 94.2601 42.888C94.7401 42.36 95.1481 41.52 95.4841 40.368L101.892 19.56C101.988 19.32 102.036 18.984 102.036 18.552C102.036 18.024 101.916 17.616 101.676 17.328C101.484 17.04 101.148 16.68 100.668 16.248C100.188 15.864 99.8521 15.528 99.6601 15.24C99.4681 14.952 99.4441 14.568 99.5881 14.088C99.8761 12.984 101.388 12.024 104.124 11.208C106.86 10.344 109.716 9.912 112.692 9.912C115.092 9.912 116.988 10.584 118.38 11.928C119.772 13.224 120.396 15.048 120.252 17.4C122.22 14.568 124.308 12.624 126.516 11.568C128.724 10.464 131.124 9.912 133.716 9.912C136.644 9.912 138.996 10.8 140.772 12.576C142.596 14.352 143.508 16.656 143.508 19.488C143.508 20.976 143.268 22.44 142.788 23.88L138.396 38.064ZM173.231 9.912C179.759 9.912 184.559 11.232 187.631 13.872C190.751 16.512 192.311 19.968 192.311 24.24C192.311 25.68 192.119 27.288 191.735 29.064C190.823 33 189.119 36.456 186.623 39.432C184.127 42.36 181.055 44.64 177.407 46.272C173.807 47.856 169.895 48.648 165.671 48.648C158.999 48.648 154.055 47.328 150.839 44.688C147.671 42 146.087 38.448 146.087 34.032C146.087 32.544 146.279 30.888 146.663 29.064C147.575 25.32 149.303 22.008 151.847 19.128C154.439 16.2 157.583 13.944 161.279 12.36C165.023 10.728 169.007 9.912 173.231 9.912ZM173.015 16.32C172.007 16.32 170.927 17.232 169.775 19.056C168.671 20.832 167.351 24.216 165.815 29.208C164.279 34.2 163.511 37.704 163.511 39.72C163.511 40.776 163.679 41.496 164.015 41.88C164.351 42.216 164.807 42.384 165.383 42.384C166.391 42.48 167.423 41.616 168.479 39.792C169.583 37.968 170.951 34.416 172.583 29.136C174.071 24.48 174.815 21.096 174.815 18.984C174.815 17.976 174.647 17.28 174.311 16.896C174.023 16.512 173.591 16.32 173.015 16.32Z" fill="#9EB68E"/>
</svg>
